<?xml version="1.0" standalone="no"?><!DOCTYPE svg PUBLIC "-//W3C//DTD SVG 1.1//EN" "http://www.w3.org/Graphics/SVG/1.1/DTD/svg11.dtd"><svg t="1647487246374" class="icon" viewBox="0 0 1024 1024" version="1.1" xmlns="http://www.w3.org/2000/svg" p-id="16516" xmlns:xlink="http://www.w3.org/1999/xlink" width="50" height="50"><defs><style type="text/css"></style></defs><path d="M0 0m61.567166 0l344.124792 0q61.567166 0 61.567167 61.567166l0 342.108739q0 61.567166-61.567167 61.567166l-344.124792 0q-61.567166 0-61.567166-61.567166l0-342.108739q0-61.567166 61.567166-61.567166Z" fill="#F90B00" p-id="16517"></path><path d="M557.361199 0m232.621536 0l1.860972 0q232.621536 0 232.621536 232.621536l0 0q0 232.621536-232.621536 232.621535l-1.860972 0q-232.621536 0-232.621536-232.621535l0 0q0-232.621536 232.621536-232.621536Z" fill="#FFA4A0" p-id="16518"></path><path d="M0 558.756929m61.567166 0l344.124792 0q61.567166 0 61.567167 61.567166l0 342.108739q0 61.567166-61.567167 61.567166l-344.124792 0q-61.567166 0-61.567166-61.567166l0-342.108739q0-61.567166 61.567166-61.567166Z" fill="#F90B00" p-id="16519"></path><path d="M557.361199 558.756929m61.567167 0l344.124792 0q61.567166 0 61.567166 61.567166l0 342.108739q0 61.567166-61.567166 61.567166l-344.124792 0q-61.567166 0-61.567167-61.567166l0-342.108739q0-61.567166 61.567167-61.567166Z" fill="#F90B00" p-id="16520"></path></svg>