<?xml version="1.0" standalone="no"?><!DOCTYPE svg PUBLIC "-//W3C//DTD SVG 1.1//EN" "http://www.w3.org/Graphics/SVG/1.1/DTD/svg11.dtd"><svg t="1647487250880" class="icon" viewBox="0 0 1024 1024" version="1.1" xmlns="http://www.w3.org/2000/svg" p-id="16650" xmlns:xlink="http://www.w3.org/1999/xlink" width="50" height="50"><defs><style type="text/css"></style></defs><path d="M221.090909 300.218182C481.745455 100.072727 495.709091 55.854545 565.527273 93.090909c104.727273 55.854545 69.818182 32.581818 90.763636 76.8 6.981818 16.290909 39.563636 25.6 34.909091 44.218182-37.236364 116.363636-114.036364 235.054545-228.072727 328.145454-90.763636 76.8-193.163636 128-293.236364 153.6-6.981818 2.327273-23.272727 13.963636-23.272727 4.654546 2.327273-121.018182 30.254545-76.8 6.981818-165.236364-13.963636-53.527273-51.2-65.163636-65.163636-83.781818-51.2-58.181818 16.290909-62.836364 132.654545-151.272727z" fill="#FECAB2" p-id="16651"></path><path d="M761.018182 954.181818h-100.072727c-39.563636 0-69.818182-30.254545-69.818182-69.818182v-155.927272c0-23.272727-9.309091-44.218182-25.6-58.181819-16.290909-16.290909-39.563636-23.272727-62.836364-20.945454-41.890909 4.654545-74.472727 41.890909-74.472727 83.781818V884.363636c0 39.563636-30.254545 69.818182-69.818182 69.818182H256c-65.163636 0-116.363636-51.2-118.690909-116.363636V488.727273H100.072727c-23.272727 0-46.545455-16.290909-53.527272-39.563637-6.981818-23.272727 0-48.872727 18.618181-62.836363L423.563636 100.072727c53.527273-41.890909 130.327273-41.890909 183.854546 2.327273L954.181818 395.636364c18.618182 16.290909 25.6 41.890909 16.290909 62.836363-9.309091 23.272727-30.254545 37.236364-55.854545 37.236364h-37.236364V837.818182c0 65.163636-51.2 116.363636-116.363636 116.363636zM507.345455 602.763636c32.581818 0 62.836364 11.636364 88.436363 34.909091 25.6 23.272727 41.890909 58.181818 41.890909 93.090909V884.363636c0 13.963636 9.309091 23.272727 23.272728 23.272728h102.4c39.563636 0 69.818182-30.254545 72.145454-67.490909V472.436364c0-6.981818 2.327273-11.636364 6.981818-16.290909 4.654545-4.654545 9.309091-6.981818 16.290909-6.981819h60.509091c6.981818 0 11.636364-4.654545 11.636364-9.309091 0-2.327273 0-6.981818-4.654546-9.30909L579.490909 139.636364c-34.909091-30.254545-88.436364-30.254545-125.672727-2.327273L93.090909 423.563636c-4.654545 2.327273-4.654545 6.981818-4.654545 11.636364 2.327273 4.654545 6.981818 6.981818 11.636363 6.981818h60.509091c13.963636 0 23.272727 9.309091 23.272727 23.272727v372.363637c0 39.563636 30.254545 69.818182 69.818182 69.818182H356.072727c13.963636 0 23.272727-9.309091 23.272728-23.272728v-151.272727c0-67.490909 48.872727-123.345455 116.363636-130.327273h11.636364z" fill="#FC661F" p-id="16652"></path></svg>