<?xml version="1.0" standalone="no"?><!DOCTYPE svg PUBLIC "-//W3C//DTD SVG 1.1//EN" "http://www.w3.org/Graphics/SVG/1.1/DTD/svg11.dtd"><svg t="1647487273202" class="icon" viewBox="0 0 1024 1024" version="1.1" xmlns="http://www.w3.org/2000/svg" p-id="17179" xmlns:xlink="http://www.w3.org/1999/xlink" width="50" height="50"><defs><style type="text/css"></style></defs><path d="M768 384c0-160-128-288-288-288S192 224 192 384c0 108.8 57.6 201.6 147.2 249.6-121.6 48-214.4 153.6-240 288-3.2 16 6.4 35.2 25.6 38.4h3.2c16 0 28.8-9.6 32-25.6C188.8 784 320 675.2 473.6 672h6.4c160 0 288-128 288-288z m-512 0c0-124.8 99.2-224 224-224s224 99.2 224 224c0 121.6-99.2 220.8-220.8 224h-9.6C352 604.8 256 505.6 256 384z m640 320H640c-19.2 0-32 12.8-32 32v192c0 19.2 12.8 32 32 32h256c19.2 0 32-12.8 32-32V736c0-16-12.8-32-32-32z m-32 192H672V768h192v128z" fill="#D81E06" p-id="17180"></path><path d="M736 864h32c19.2 0 32-12.8 32-32s-12.8-32-32-32h-32c-19.2 0-32 12.8-32 32s16 32 32 32z" fill="#D81E06" p-id="17181"></path></svg>