<?xml version="1.0" standalone="no"?><!DOCTYPE svg PUBLIC "-//W3C//DTD SVG 1.1//EN" "http://www.w3.org/Graphics/SVG/1.1/DTD/svg11.dtd"><svg t="1647487255702" class="icon" viewBox="0 0 1024 1024" version="1.1" xmlns="http://www.w3.org/2000/svg" p-id="16782" xmlns:xlink="http://www.w3.org/1999/xlink" width="50" height="50"><defs><style type="text/css"></style></defs><path d="M0 81.454545C0 100.072727 13.963636 116.363636 32.581818 116.363636c48.872727 0 53.527273 13.963636 107.054546 316.509091 72.145455 421.236364 30.254545 384 435.2 377.018182 435.2-9.309091 451.490909-48.872727 25.6-65.163636-269.963636-9.309091-309.527273-16.290909-316.509091-51.2-6.981818-37.236364 20.945455-41.890909 316.509091-41.890909 232.727273 0 330.472727-9.309091 346.763636-30.254546 41.890909-51.2 81.454545-367.709091 51.2-402.618182C977.454545 193.163636 884.363636 186.181818 579.490909 186.181818 216.436364 186.181818 186.181818 183.854545 186.181818 144.290909 186.181818 83.781818 139.636364 46.545455 65.163636 46.545455 23.272727 46.545455 0 58.181818 0 81.454545z m916.945455 193.163637c4.654545 9.309091-2.327273 81.454545-16.29091 155.927273l-27.927272 139.636363-304.872728 6.981818-307.2 6.981819-25.6-148.945455C221.090909 353.745455 209.454545 279.272727 209.454545 272.290909c0-23.272727 693.527273-20.945455 707.49091 2.327273z" fill="#FF5777" p-id="16783"></path></svg>